<?xml version='1.0' encoding='utf-8'?>
<svg xmlns="http://www.w3.org/2000/svg" version="1.1" viewBox="0 0 1000 1000" xml:space="preserve">
  <defs>
    <g id="paw">
    <path d="M582.2,282.1c1.2-9.8,2.7-19,3.2-28.1c0.6-11.1,0.9-22.2,0.1-33.2c-1.2-16.7,12.7-28.7,28.3-22.7  c19.2,7.4,38.1,15.6,56.6,24.5c14.7,7,20.6,26.1,14,40.7c-3.8,8.2-10.1,13.4-19.1,15c-15.3,2.7-28.2,9.7-38.8,21  c-8.1,8.5-17.5,10.9-27,7C589.7,302.2,582.3,291.5,582.2,282.1z" />
    <path d="M630.5,162.4c0.7-2.7,1.5-7.9,3.5-12.5c3.5-7.7,10.9-10.6,18.7-7.5c3.8,1.5,7.6,3.9,10.4,6.8c12.2,12.7,18.4,27.8,15,45.6  c-2.8,14.9-15.7,19.5-27.8,10.1C637.3,194.9,631.5,181,630.5,162.4z" />
    <path d="M536.5,207.8c19.5,0.1,39.6,21.6,38.4,41c-0.7,11.1-10.4,18-22.4,16.1c-17-2.8-32.7-19.2-34.7-36.2  C516.4,216.5,524.3,207.7,536.5,207.8z" />
    <path d="M575.6,149c1.2-4.6,1.9-9.5,3.8-13.8c4.4-10,13.9-13.3,23.6-8.2c11.2,5.8,17,16,19.4,27.8c1.2,6.1,1.3,12.8,0,18.9  c-3,14.7-16.9,19.6-29.1,10.8C583.1,177.2,576.3,163,575.6,149z" />
    <path d="M584.3,191.1c0.1,12-8.5,19.5-20.4,18c-17.3-2.1-33.5-18.1-35.2-34.6c-1.4-14,6.8-22.4,20.9-21.1  C566.5,154.9,584.2,174.2,584.3,191.1z" />
    </g>
  </defs>
  <g transform="translate(500 235) scale(2.05) translate(-602.0 -216.0)"><use href="#paw"/></g> <g transform="translate(250 780) scale(2.35) translate(-602.0 -216.0)"><use href="#paw"/></g> <g transform="translate(760 775) scale(2.35) translate(-602.0 -216.0)"><use href="#paw"/></g>
</svg>