<?xml version='1.0' encoding='utf-8'?>
<svg xmlns="http://www.w3.org/2000/svg" version="1.1" id="Layer_1" x="0px" y="0px" viewBox="337.0 114.0 868.5 868.5" style="enable-background:new 337.0 114.0 868.5 868.5;" xml:space="preserve">
<path d="M445.1,487.1c0-5.3,0.4-10.7-0.1-15.9c-1.5-16.8,12.4-28.9,28-22.9c19.3,7.4,38.4,15.7,57,24.7c14.5,7,20.3,25.9,13.8,40.4  c-3.7,8.2-10,13.5-19,15.1c-15.3,2.7-28.2,9.7-38.9,20.9c-8.8,9.2-19,11.4-29.1,6.2c-10.9-5.6-16.4-17.4-14.7-29.3  c1.8-13,2.9-26,4.2-39.1C445.9,487.2,445.5,487.2,445.1,487.1z" />
<path d="M582.2,282.1c1.2-9.8,2.7-19,3.2-28.1c0.6-11.1,0.9-22.2,0.1-33.2c-1.2-16.7,12.7-28.7,28.3-22.7  c19.2,7.4,38.1,15.6,56.6,24.5c14.7,7,20.6,26.1,14,40.7c-3.8,8.2-10.1,13.4-19.1,15c-15.3,2.7-28.2,9.7-38.8,21  c-8.1,8.5-17.5,10.9-27,7C589.7,302.2,582.3,291.5,582.2,282.1z" />
<path d="M1060.4,945.9c1.2-10,2.8-19.1,3.2-28.2c0.6-11.1,0.8-22.2,0.1-33.2c-1.2-16.6,12.8-28.6,28.4-22.6  c19,7.4,37.8,15.4,56.2,24.3c16.3,7.8,21.8,29.3,12.5,44.2c-3.9,6.3-9.6,10.2-16.9,11.5c-15.5,2.7-28.5,9.7-39.3,21.1  c-8,8.5-17.5,10.8-27.1,6.9C1067.7,965.9,1060.4,955.2,1060.4,945.9z" />
<path d="M816.9,511.6c3.2,1,8.6,2.4,13.7,4.6c16,6.9,32.2,13.5,47.8,21.3c15.6,7.8,21.3,28.4,12.8,43.2c-4,6.9-9.9,11.1-17.7,12.5  c-15.3,2.7-28.2,9.7-38.9,21c-8.7,9.2-19.1,11.3-29.1,6.1c-10.7-5.5-16.7-17.5-14.6-28.8c3.3-18.7,4.3-37.6,2.7-56.5  C792.6,522.1,801.6,511.7,816.9,511.6z" />
<path d="M748.2,920.6c1.2-10,2.8-19.1,3.2-28.3c0.6-11.1,0.8-22.2,0-33.2c-1.2-16.6,12.8-28.6,28.4-22.5c19,7.4,37.8,15.4,56.2,24.3  c16.1,7.8,21.6,28.9,12.6,43.9c-3.9,6.5-9.7,10.6-17.1,11.9c-15.5,2.7-28.5,9.8-39.2,21.2c-8,8.5-17.5,10.8-27.1,6.8  C755.5,940.5,748.2,929.8,748.2,920.6z" />
<path d="M630.5,162.4c0.7-2.7,1.5-7.9,3.5-12.5c3.5-7.7,10.9-10.6,18.7-7.5c3.8,1.5,7.6,3.9,10.4,6.8c12.2,12.7,18.4,27.8,15,45.6  c-2.8,14.9-15.7,19.5-27.8,10.1C637.3,194.9,631.5,181,630.5,162.4z" />
<path d="M1108.7,827.1c0.5-2.4,0.9-6.7,2.2-10.6c3.8-11,13.3-14.5,23.6-8.7c8.6,4.9,14,12.7,18,21.5c4.1,9.1,6.1,18.7,4.1,28.7  c-3.2,15.6-16.1,20.5-28.6,10.5C1115.4,858.3,1109.7,844.7,1108.7,827.1z" />
<path d="M796.4,801.6c0.7-2.9,1.2-7.6,2.9-11.9c3.5-9,11.7-12.3,20.6-8.3c11,4.8,17,14.3,21.3,24.9c3.7,9,5.2,18.3,2.8,27.9  c-3.3,13.4-14.7,18.2-26.1,10.4C803.5,834.7,797.7,820.2,796.4,801.6z" />
<path d="M489.8,413.5c0.7-2.9,1.2-7.6,2.9-11.9c3.5-9,11.7-12.3,20.6-8.4c11,4.8,17,14.3,21.3,24.9c3.7,9,5.2,18.3,2.8,27.9  c-3.3,13.4-14.7,18.2-26.1,10.4C497,446.6,491.2,432.1,489.8,413.5z" />
<path d="M838.7,477.8c0.6-2.5,1.1-7.2,2.7-11.4c3.5-9,11.6-12.3,20.6-8.4c2.9,1.3,5.9,3.1,8.2,5.3c12.1,11.7,17.9,26,16.8,42.8  c-0.5,7.4-3.1,14.4-10.5,17.5c-7.5,3.2-14.1,0.1-19.8-4.9C845,508.5,839.6,495.3,838.7,477.8z" />
<path d="M536.5,207.8c19.5,0.1,39.6,21.6,38.4,41c-0.7,11.1-10.4,18-22.4,16.1c-17-2.8-32.7-19.2-34.7-36.2  C516.4,216.5,524.3,207.7,536.5,207.8z" />
<path d="M434.3,497.1c0,12.5-9.5,20.1-22.3,18c-16.9-2.7-32.7-19.1-34.8-36.1c-1.6-13.1,7.2-21.9,20.9-21  C416,459.4,434.4,479.2,434.3,497.1z" />
<path d="M702.5,846.2c19.5,0.1,39.6,21.6,38.3,41.1c-0.7,11.1-10.5,18-22.4,16c-16.8-2.8-32.2-18.8-34.6-35.7  C682.1,855.2,690.1,846.1,702.5,846.2z" />
<path d="M1053.1,910.6c0,12.5-9.5,20.1-22.3,18c-16.9-2.7-32.7-19.1-34.7-36.1c-1.6-13.1,7.2-21.9,20.9-21  C1034.7,872.8,1053.1,892.7,1053.1,910.6z" />
<path d="M744.6,522.8c19.5,0.1,39.6,21.5,38.4,41c-0.7,11.1-10.3,18.1-22.4,16.1c-16.9-2.8-32.7-19.2-34.7-36.1  C724.5,531.5,732.4,522.7,744.6,522.8z" />
<path d="M575.6,149c1.2-4.6,1.9-9.5,3.8-13.8c4.4-10,13.9-13.3,23.6-8.2c11.2,5.8,17,16,19.4,27.8c1.2,6.1,1.3,12.8,0,18.9  c-3,14.7-16.9,19.6-29.1,10.8C583.1,177.2,576.3,163,575.6,149z" />
<path d="M435.5,397.4c0.8-2.8,1.6-8.4,4-13.3c4.1-8.6,13.3-11.4,21.9-7.3c11.9,5.7,18,16.2,20.5,28.5c1.2,5.9,1.2,12.5,0,18.4  c-3,15.1-17.4,20.1-29.7,10.7C441.1,425.8,436.4,413.9,435.5,397.4z" />
<path d="M784.3,462c0.7-2.6,1.4-7.5,3.3-11.8c4.4-10,13.9-13.3,23.6-8.2c11.2,5.8,17,16,19.4,27.8c1.2,6.1,1.3,12.8,0,18.9  c-3,14.7-17,19.7-29,10.8C789.8,490.8,785.1,478.4,784.3,462z" />
<path d="M1102.2,829.6c-0.6,2.7-1,6.8-2.3,10.6c-4.5,12.2-15.8,15.9-26.8,9.1c-14.7-9-22.5-32.2-16.5-48.3  c4.5-12,15.5-16.2,26.3-9.3C1096.2,800.1,1100.9,813.3,1102.2,829.6z" />
<path d="M742.1,785.7c0.6-2.6,1.1-7.2,2.8-11.3c4.4-10.9,14.7-14.4,24.9-8.6c10.6,6,16.3,15.9,18.5,27.4c1.2,6.1,1.3,12.8,0,18.9  c-3,14.7-17,19.7-29,10.8C747.6,814.2,742.9,801.9,742.1,785.7z" />
<path d="M584.3,191.1c0.1,12-8.5,19.5-20.4,18c-17.3-2.1-33.5-18.1-35.2-34.6c-1.4-14,6.8-22.4,20.9-21.1  C566.5,154.9,584.2,174.2,584.3,191.1z" />
<path d="M406.3,403.6c18.9,0.1,38.7,21.5,37.3,40.3c-0.7,9.4-8.4,16-18.2,15.8c-18-0.5-36.7-18.8-37.5-36.9  C387.3,411.2,394.6,403.6,406.3,403.6z" />
<path d="M754.7,468.3c18.9-0.1,38.8,21,37.7,39.9c-0.6,9.6-8.3,16.5-18.3,16.1c-18.1-0.6-36.7-18.9-37.5-37  C736.1,476,743.3,468.4,754.7,468.3z" />
<path d="M1062.4,855.1c0,11.7-8.5,19.2-20.1,17.8c-17.5-2.1-33.8-18.1-35.5-34.8c-1.4-13.8,6.8-22,20.6-20.9  C1044.5,818.5,1062.4,837.9,1062.4,855.1z" />
<path d="M712.6,791.8c18.9,0,38.8,21.1,37.6,40c-0.6,9.6-8.4,16.4-18.4,16c-18-0.7-36.3-18.6-37.4-36.6  C693.7,799.5,701,791.8,712.6,791.8z" />
</svg>